<svg xmlns="http://www.w3.org/2000/svg" width="185.426" height="163.515" viewBox="0 0 185.426 163.515"><g transform="translate(-24.065 88.005) rotate(-45)"><path d="M101.292,85.849A232.356,232.356,0,0,1,71.153,78.99,239.75,239.75,0,0,1,41.828,68.265,159.374,159.374,0,0,1,18.681,55.828a86.775,86.775,0,0,1-8.531-6.373,46.516,46.516,0,0,1-6.107-6.2A20.826,20.826,0,0,1,.65,37.478a9.3,9.3,0,0,1-.487-5.066q.027-.13.06-.259L6.906,0l32.81,8.593L32.785,22.105a160.607,160.607,0,0,1,18.358,1.851,232.545,232.545,0,0,1,30.138,6.859A239.769,239.769,0,0,1,110.608,41.54q3,1.333,5.834,2.7l-1.757-5.385L159.4,40.4l-7.066,36.734h-.013q-.022.128-.049.255a8.118,8.118,0,0,1-2.436,4.2,16.4,16.4,0,0,1-5.283,3.21,37.731,37.731,0,0,1-7.847,2.074,73.737,73.737,0,0,1-10.055.878q-1.257.031-2.553.031A150.313,150.313,0,0,1,101.292,85.849Z" transform="matrix(0.978, 0.208, -0.208, 0.978, 18.342, 19.05)" fill="#bbd4d0" stroke="#4f2479" stroke-width="2"/><g transform="translate(34.033 0) rotate(27)" fill="#bbd4d0"><path d="M 80.12606811523438 42.59807205200195 C 69.34326171875 42.59807205200195 58.88615417480469 42.02482223510742 49.04519653320312 40.89423751831055 C 39.55250930786133 39.80365371704102 31.03325843811035 38.24365615844727 23.72407150268555 36.25753021240234 C 16.46484184265137 34.28498840332031 10.78217601776123 31.99809265136719 6.833926200866699 29.4603214263916 C 4.889280319213867 28.21040534973145 3.406030178070068 26.91573905944824 2.425342559814453 25.61230087280273 C 1.479176044464111 24.35473823547363 0.999634325504303 23.08013534545898 1.000009298324585 21.82394790649414 C 1.000384330749512 20.56673812866211 1.481509327888489 19.29078102111816 2.430009365081787 18.03150939941406 C 3.413050889968872 16.72640609741211 4.89936351776123 15.42982196807861 6.847717761993408 14.17780113220215 C 10.80319690704346 11.63598823547363 16.49486351013184 9.344551086425781 23.76461410522461 7.367134571075439 C 31.08459281921387 5.37605094909668 39.61490631103516 3.811217784881592 49.11857223510742 2.716092824935913 C 58.97173690795898 1.580696940422058 69.43988800048828 1.003322005271912 80.23221588134766 1.000009417533875 L 80.32438659667969 0.9999886155128479 C 91.10720062255859 0.9999886155128479 101.5643005371094 1.573238611221313 111.4052352905273 2.703842878341675 C 120.8979263305664 3.794405221939087 129.4171752929688 5.35442590713501 136.7263641357422 7.340530395507812 C 143.985595703125 9.313072204589844 149.6682586669922 11.59998893737793 153.6164855957031 14.13773822784424 C 155.5611267089844 15.38767623901367 157.0443878173828 16.68232154846191 158.0250701904297 17.98575973510742 C 158.9712371826172 19.24334335327148 159.4507751464844 20.51792526245117 159.4504089355469 21.77411270141602 C 159.4500274658203 23.03132247924805 158.9689025878906 24.30727958679199 158.0204010009766 25.56655120849609 C 157.0373687744141 26.87165451049805 155.5510559082031 28.16823768615723 153.6026916503906 29.42025947570801 C 149.647216796875 31.96207237243652 143.9555511474609 34.25350952148438 136.6858062744141 36.23092651367188 C 129.3658142089844 38.22200775146484 120.8355331420898 39.78684234619141 111.3318634033203 40.8819694519043 C 101.4786987304688 42.01736450195312 91.01057434082031 42.5947380065918 80.21823883056641 42.59805297851562 L 80.12606811523438 42.59807205200195 Z" stroke="none"/><path d="M 80.27882385253906 1.999988555908203 L 80.23249816894531 2.000007629394531 C 69.47817230224609 2.003311157226562 59.04843902587891 2.578464508056641 49.23304748535156 3.709506988525391 C 39.7791748046875 4.798900604248047 31.29866027832031 6.354137420654297 24.02708435058594 8.332073211669922 C 16.9569091796875 10.25520324707031 11.20332336425781 12.56752967834473 7.3883056640625 15.01907348632812 C 4.930648803710938 16.5983772277832 2.0008544921875 19.06100845336914 2 21.82424736022949 C 1.999160766601562 24.58450889587402 4.922256469726562 27.04285621643066 7.374603271484375 28.61911773681641 C 11.18238830566406 31.06659507751465 16.92660522460938 33.37422561645508 23.98626708984375 35.29253005981445 C 31.24702453613281 37.26548767089844 39.71646118164062 38.81592178344727 49.1593017578125 39.9007682800293 C 58.9625244140625 41.02700805664062 69.38121795654297 41.59807205200195 80.12604522705078 41.59807205200195 L 80.17160797119141 41.59807205200195 L 80.21793365478516 41.59805297851562 C 90.97225952148438 41.59474945068359 101.4019775390625 41.01959609985352 111.2173690795898 39.88855361938477 C 120.6712417602539 38.79916000366211 129.1517333984375 37.24392318725586 136.4233245849609 35.26598739624023 C 143.4934844970703 33.34285736083984 149.2470855712891 31.0305290222168 153.0621032714844 28.57898712158203 C 155.5197601318359 26.99968338012695 158.4495697021484 24.53707313537598 158.4504089355469 21.77383422851562 C 158.4512634277344 19.01357460021973 155.5281524658203 16.55520439147949 153.0758056640625 14.97896575927734 C 149.2680206298828 12.53148651123047 143.5238037109375 10.22383499145508 136.4641571044922 8.305530548095703 C 129.2033996582031 6.332572937011719 120.7339630126953 4.782138824462891 111.2911071777344 3.697292327880859 C 101.4879150390625 2.571052551269531 91.06919860839844 1.999988555908203 80.32439422607422 1.999988555908203 L 80.27882385253906 1.999988555908203 M 80.32440185546875 -3.814697265625e-06 C 124.5905303955078 -3.814697265625e-06 160.4540863037109 9.743244171142578 160.4504089355469 21.77444267272949 C 160.4467163085938 33.81370544433594 124.5256805419922 43.58446502685547 80.21854400634766 43.59805297851562 C 80.18879699707031 43.59806060791016 80.15577697753906 43.59806442260742 80.12603759765625 43.59806442260742 C 35.85987854003906 43.59806442260742 -0.003692626953125 33.85481643676758 0 21.82363891601562 C 0.003692626953125 9.784355163574219 35.92472076416016 0.0135955810546875 80.23189544677734 7.62939453125e-06 C 80.26164245605469 0 80.29466247558594 -3.814697265625e-06 80.32440185546875 -3.814697265625e-06 Z" stroke="none" fill="#4f2479"/></g></g></svg>