<svg xmlns="http://www.w3.org/2000/svg" width="213.589" height="42.301" viewBox="0 0 213.589 42.301"><g transform="translate(-1630.721 -474.387)"><path d="M1688.279,480.2a19.338,19.338,0,0,0-9.025-5.172,20.114,20.114,0,0,0-10.4.1,20.6,20.6,0,0,0-9.277,5.466l-1.476,1.478a20.835,20.835,0,0,0-5.524,9.333,19.857,19.857,0,0,0-.117,10.386,20.2,20.2,0,0,0,14.254,14.256,19.8,19.8,0,0,0,10.407-.1,20.833,20.833,0,0,0,9.335-5.522l1.476-1.478a20.611,20.611,0,0,0,5.467-9.278,20.1,20.1,0,0,0,.1-10.4A19.457,19.457,0,0,0,1688.279,480.2Zm-1.225,14.022a29.97,29.97,0,0,1-5.62,7.606l-2.1,2.1a30.163,30.163,0,0,1-7.622,5.639,17.782,17.782,0,0,1-7.528,2.159,6.658,6.658,0,0,1-7.388-7.388,17.785,17.785,0,0,1,2.158-7.528,30.188,30.188,0,0,1,5.641-7.622l2.1-2.1a29.927,29.927,0,0,1,7.6-5.622,17.821,17.821,0,0,1,7.505-2.138,6.658,6.658,0,0,1,7.39,7.39A17.832,17.832,0,0,1,1687.054,494.218Z" transform="translate(22.279 0)" fill="#e1fd2c"/><path d="M1710.407,480.2a19.338,19.338,0,0,0-9.025-5.172,20.114,20.114,0,0,0-10.4.1,20.6,20.6,0,0,0-9.277,5.466l-1.476,1.478a20.826,20.826,0,0,0-5.523,9.333,19.867,19.867,0,0,0-.118,10.386,20.21,20.21,0,0,0,14.256,14.256,19.794,19.794,0,0,0,10.4-.1,20.835,20.835,0,0,0,9.335-5.522l1.478-1.478a20.6,20.6,0,0,0,5.464-9.278,20.087,20.087,0,0,0,.1-10.4A19.439,19.439,0,0,0,1710.407,480.2Zm-1.225,14.022a29.961,29.961,0,0,1-5.62,7.606l-2.1,2.1a30.149,30.149,0,0,1-7.623,5.639,17.776,17.776,0,0,1-7.528,2.159,6.658,6.658,0,0,1-7.388-7.388,17.809,17.809,0,0,1,2.159-7.528,30.2,30.2,0,0,1,5.64-7.622l2.1-2.1a29.967,29.967,0,0,1,7.6-5.622,17.828,17.828,0,0,1,7.505-2.138,6.658,6.658,0,0,1,7.39,7.39A17.826,17.826,0,0,1,1709.181,494.218Z" transform="translate(45.64 0)" fill="#e1fd2c"/><path d="M1716.931,484.942h27.019l-28.944,26.1v2.72h39.659v-9.626h-28.207l28.867-26.035v-2.789h-38.395Z" transform="translate(88.984 0.981)" fill="#e1fd2c"/><path d="M1668.14,475.29v32.373l-27.794-32.373h-9.627v38.5h2.845V481.42l27.794,32.373h9.627v-38.5h-2.845Z" transform="translate(0.001 0.953)" fill="#e1fd2c"/><path d="M1731.917,484.557a17.813,17.813,0,0,0-7.012-6.821,20.86,20.86,0,0,0-10.151-2.446h-18.372v38.5h18.372a22.119,22.119,0,0,0,10.233-2.284,16.54,16.54,0,0,0,6.957-6.656,20.4,20.4,0,0,0,2.5-10.314A19.555,19.555,0,0,0,1731.917,484.557Zm-1.431,15.182a17.8,17.8,0,0,1-6.819,3.8,29.951,29.951,0,0,1-9.351,1.4h-2.971a30.178,30.178,0,0,1-9.378-1.4,23.224,23.224,0,0,1-2.74-1.087V486.58a23.549,23.549,0,0,1,2.74-1.088,30.176,30.176,0,0,1,9.378-1.4h2.971a29.949,29.949,0,0,1,9.351,1.4,17.855,17.855,0,0,1,6.819,3.8,6.659,6.659,0,0,1,0,10.449Z" transform="translate(69.323 0.953)" fill="#e1fd2c"/></g></svg>