<svg xmlns="http://www.w3.org/2000/svg" width="141.097" height="111.757" viewBox="0 0 141.097 111.757"><g transform="translate(2.555 -0.469) rotate(1)"><path d="M79.952,68.825a183.2,183.2,0,0,1-23.762-5.408A189.025,189.025,0,0,1,33.07,54.961,125.654,125.654,0,0,1,14.82,45.156a68.415,68.415,0,0,1-6.726-5.025A36.675,36.675,0,0,1,3.28,35.242,16.419,16.419,0,0,1,.6,30.688,7.332,7.332,0,0,1,.22,26.694q.022-.1.047-.2l5.27-25.35L31.4,7.915,25.94,18.568a126.626,126.626,0,0,1,14.474,1.459,183.344,183.344,0,0,1,23.762,5.408A189.04,189.04,0,0,1,87.3,33.89q2.364,1.051,4.6,2.133l-1.385-4.246,35.255,1.218L120.2,61.957h-.01q-.018.1-.038.2a6.4,6.4,0,0,1-1.921,3.313A12.93,12.93,0,0,1,114.062,68a29.748,29.748,0,0,1-6.187,1.635,58.137,58.137,0,0,1-7.927.692q-.991.024-2.012.024A118.509,118.509,0,0,1,79.952,68.825Z" transform="matrix(0.978, 0.208, -0.208, 0.978, 14.627, 13.886)" fill="#f6a0a9" stroke="#16774a" stroke-width="2"/><g transform="translate(26.851 0) rotate(27)" fill="#f6a0a9"><path d="M 63.17327880859375 33.37371444702148 C 54.67991256713867 33.37371444702148 46.44339370727539 32.92221450805664 38.69254684448242 32.0317497253418 C 31.21884536743164 31.17313385009766 24.51259613037109 29.94521713256836 18.76009559631348 28.38209915161133 C 13.0576286315918 26.83256530761719 8.597111701965332 25.03833198547363 5.502411842346191 23.04921531677246 C 3.990378618240356 22.07733345031738 2.839328527450562 21.07368278503418 2.081261873245239 20.06611633300781 C 1.363495230674744 19.11213302612305 0.9997118711471558 18.15003204345703 0.9999951720237732 17.2065486907959 C 1.000278472900391 16.26228332519531 1.365295171737671 15.29909992218018 2.084861755371094 14.34375 C 2.844795227050781 13.3348331451416 3.998278617858887 12.32963275909424 5.513261795043945 11.35609912872314 C 8.613661766052246 9.363766670227051 13.08131217956543 7.565949440002441 18.79209518432617 6.012566089630127 C 24.5530948638916 4.445549488067627 31.26804542541504 3.213816165924072 38.75041198730469 2.351616144180298 C 46.51087951660156 1.457366228103638 54.75607681274414 1.002616286277771 63.2569465637207 1.000016212463379 L 63.32961273193359 0.9999995827674866 C 71.82297515869141 0.9999995827674866 80.05946350097656 1.451499581336975 87.81029510498047 2.341966152191162 C 95.28399658203125 3.200582981109619 101.9902114868164 4.428499698638916 107.7426986694336 5.991616249084473 C 113.4451446533203 7.541132926940918 117.9056625366211 9.335382461547852 121.0003280639648 11.32449913024902 C 122.5123748779297 12.29636669158936 123.6634140014648 13.30003261566162 124.4214782714844 14.30758285522461 C 125.1392440795898 15.26158332824707 125.5030288696289 16.22366714477539 125.5027465820312 17.16715049743652 C 125.5024642944336 18.11141586303711 125.1374435424805 19.07460021972656 124.4178771972656 20.02994918823242 C 123.6579437255859 21.03886604309082 122.5044631958008 22.04406547546387 120.9894790649414 23.01759910583496 C 117.8890762329102 25.00993347167969 113.4214248657227 26.80774879455566 107.7106475830078 28.36113357543945 C 101.9496612548828 29.92816543579102 95.23471069335938 31.15988349914551 87.75234222412109 32.02209854125977 C 79.99188232421875 32.91635131835938 71.74669647216797 33.37110137939453 63.24582672119141 33.37369918823242 L 63.17327880859375 33.37371444702148 Z" stroke="none"/><path d="M 63.29385375976562 1.999996185302734 L 63.25727081298828 2.000011444091797 C 54.79438018798828 2.002613067626953 46.58760070800781 2.455141067504883 38.86489105224609 3.34503173828125 C 31.43232727050781 4.201503753662109 24.76715850830078 5.423648834228516 19.0545654296875 6.977521896362305 C 13.52141571044922 8.482559204101562 9.025856018066406 10.28755950927734 6.053871154785156 12.1973762512207 C 4.204849243164062 13.38557624816895 2.000595092773438 15.21917724609375 2 17.20686721801758 C 1.999397277832031 19.19206809997559 4.198326110839844 21.02224922180176 6.043106079101562 22.2079963684082 C 9.009346008300781 24.11455917358398 13.49747467041016 25.91583251953125 19.02228546142578 27.41708564758301 C 24.72636413574219 28.96703147888184 31.38275909423828 30.18537712097168 38.80663299560547 31.03828620910645 C 46.51972198486328 31.92439460754395 54.71783447265625 32.37370300292969 63.1732177734375 32.37370300292969 L 63.20892715454102 32.37370300292969 L 63.24550628662109 32.37368774414062 C 71.70838165283203 32.37108612060547 79.9151611328125 31.91855812072754 87.63787078857422 31.02866744995117 C 95.07041931152344 30.17219543457031 101.7355804443359 28.95005035400391 107.4481811523438 27.39617729187012 C 112.9813079833984 25.89113998413086 117.4768676757812 24.08613967895508 120.4488677978516 22.17632293701172 C 122.2978897094727 20.98812103271484 124.5021286010742 19.15452194213867 124.5027465820312 17.16683197021484 C 124.5033416748047 15.18163108825684 122.3044128417969 13.35146713256836 120.4596328735352 12.16572189331055 C 117.4933776855469 10.25914001464844 113.0052490234375 8.457868576049805 107.4804534912109 6.956630706787109 C 101.7763824462891 5.406667709350586 95.11997985839844 4.188322067260742 87.69612121582031 3.335432052612305 C 79.9830322265625 2.449304580688477 71.78492736816406 1.999996185302734 63.32956314086914 1.999996185302734 L 63.29385375976562 1.999996185302734 M 63.32956695556641 3.814697265625e-06 C 98.22997283935547 3.814697265625e-06 126.5056304931641 7.681804656982422 126.5027465820312 17.16744995117188 C 126.4998168945312 26.65948486328125 98.17887115478516 34.36297607421875 63.24612426757812 34.37368774414062 C 63.22267150878906 34.37369155883789 63.1966552734375 34.37369537353516 63.17321014404297 34.37369537353516 C 28.27276611328125 34.37369537353516 -0.00290679931640625 26.69191360473633 0 17.20624923706055 C 0.00290679931640625 7.714212417602539 28.32386779785156 0.01072311401367188 63.25665283203125 1.1444091796875e-05 C 63.28010559082031 7.62939453125e-06 63.30612182617188 3.814697265625e-06 63.32956695556641 3.814697265625e-06 Z" stroke="none" fill="#16774a"/></g></g></svg>